<?xml version="1.0" encoding="UTF-8" standalone="no"?>
<svg
   width="290"
   height="88"
   viewBox="0 0 290 88"
   role="img"
   aria-label="zdraw"
   version="1.1"
   id="svg94"
   xmlns="http://www.w3.org/2000/svg"
   xmlns:svg="http://www.w3.org/2000/svg">
  <title>zdraw</title>
  <title
     id="title1">zdraw</title>
  <defs
     id="defs93">
    <mask
       id="grain"
       maskUnits="userSpaceOnUse"
       x="0"
       y="0"
       width="290"
       height="88">
      <rect
         width="290"
         height="88"
         fill="white"
         id="rect1" />
      <g
         fill="black"
         transform="translate(-6,0)"
         id="g93">
        <rect
           x="94.8"
           y="22.2"
           width="2"
           height="2"
           id="rect2" />
        <rect
           x="163.0"
           y="68.6"
           width="1.5"
           height="1.5"
           id="rect3" />
        <rect
           x="178.0"
           y="70.1"
           width="2.5"
           height="2.5"
           id="rect4" />
        <rect
           x="68.8"
           y="56.7"
           width="2.5"
           height="2.5"
           id="rect5" />
        <rect
           x="130.4"
           y="24.4"
           width="1"
           height="1"
           id="rect6" />
        <rect
           x="57.6"
           y="36.3"
           width="2"
           height="2"
           id="rect7" />
        <rect
           x="95.3"
           y="23.6"
           width="2"
           height="2"
           id="rect8" />
        <rect
           x="149.5"
           y="15.8"
           width="2.5"
           height="2.5"
           id="rect9" />
        <rect
           x="68.3"
           y="17.1"
           width="1"
           height="1"
           id="rect10" />
        <rect
           x="78.7"
           y="53.2"
           width="1.5"
           height="1.5"
           id="rect11" />
        <rect
           x="78.1"
           y="30.7"
           width="1"
           height="1"
           id="rect12" />
        <rect
           x="75.6"
           y="67.4"
           width="2"
           height="2"
           id="rect13" />
        <rect
           x="137.0"
           y="72.4"
           width="2"
           height="2"
           id="rect14" />
        <rect
           x="62.7"
           y="61.0"
           width="1.5"
           height="1.5"
           id="rect15" />
        <rect
           x="63.0"
           y="31.2"
           width="1.5"
           height="1.5"
           id="rect16" />
        <rect
           x="97.2"
           y="59.3"
           width="2.5"
           height="2.5"
           id="rect17" />
        <rect
           x="70.3"
           y="49.6"
           width="2.5"
           height="2.5"
           id="rect18" />
        <rect
           x="80.4"
           y="66.3"
           width="1"
           height="1"
           id="rect19" />
        <rect
           x="141.1"
           y="67.0"
           width="2.5"
           height="2.5"
           id="rect20" />
        <rect
           x="105.8"
           y="49.8"
           width="2"
           height="2"
           id="rect21" />
        <rect
           x="90.9"
           y="18.5"
           width="1"
           height="1"
           id="rect22" />
        <rect
           x="177.2"
           y="49.4"
           width="1.5"
           height="1.5"
           id="rect23" />
        <rect
           x="171.8"
           y="30.2"
           width="2"
           height="2"
           id="rect24" />
        <rect
           x="71.1"
           y="65.3"
           width="2.5"
           height="2.5"
           id="rect25" />
        <rect
           x="97.8"
           y="38.1"
           width="1"
           height="1"
           id="rect26" />
        <rect
           x="71.4"
           y="24.8"
           width="1.5"
           height="1.5"
           id="rect27" />
        <rect
           x="108.5"
           y="30.4"
           width="2.5"
           height="2.5"
           id="rect28" />
        <rect
           x="61.0"
           y="39.4"
           width="2"
           height="2"
           id="rect29" />
        <rect
           x="132.5"
           y="19.4"
           width="1.5"
           height="1.5"
           id="rect30" />
        <rect
           x="154.9"
           y="42.6"
           width="2.5"
           height="2.5"
           id="rect31" />
        <rect
           x="113.7"
           y="14.3"
           width="2.5"
           height="2.5"
           id="rect32" />
        <rect
           x="123.1"
           y="50.1"
           width="2"
           height="2"
           id="rect33" />
        <rect
           x="57.7"
           y="17.5"
           width="1"
           height="1"
           id="rect34" />
        <rect
           x="129.3"
           y="16.9"
           width="2.5"
           height="2.5"
           id="rect35" />
        <rect
           x="61.8"
           y="35.5"
           width="2"
           height="2"
           id="rect36" />
        <rect
           x="69.1"
           y="74.0"
           width="1.5"
           height="1.5"
           id="rect37" />
        <rect
           x="58.8"
           y="23.6"
           width="2.5"
           height="2.5"
           id="rect38" />
        <rect
           x="98.4"
           y="26.0"
           width="1"
           height="1"
           id="rect39" />
        <rect
           x="57.5"
           y="57.6"
           width="1.5"
           height="1.5"
           id="rect40" />
        <rect
           x="80.1"
           y="52.4"
           width="1"
           height="1"
           id="rect41" />
        <rect
           x="165.3"
           y="24.6"
           width="2.5"
           height="2.5"
           id="rect42" />
        <rect
           x="128.7"
           y="44.3"
           width="1"
           height="1"
           id="rect43" />
        <rect
           x="80.7"
           y="45.3"
           width="1.5"
           height="1.5"
           id="rect44" />
        <rect
           x="182.0"
           y="64.5"
           width="2"
           height="2"
           id="rect45" />
        <rect
           x="63.3"
           y="52.1"
           width="1"
           height="1"
           id="rect46" />
        <rect
           x="129.6"
           y="37.6"
           width="2.5"
           height="2.5"
           id="rect47" />
        <rect
           x="121.6"
           y="35.9"
           width="2.5"
           height="2.5"
           id="rect48" />
        <rect
           x="59.9"
           y="73.6"
           width="2.5"
           height="2.5"
           id="rect49" />
        <rect
           x="76.4"
           y="43.2"
           width="2"
           height="2"
           id="rect50" />
        <rect
           x="72.0"
           y="30.5"
           width="2.5"
           height="2.5"
           id="rect51" />
        <rect
           x="131.7"
           y="25.5"
           width="1.5"
           height="1.5"
           id="rect52" />
        <rect
           x="55.8"
           y="21.2"
           width="2"
           height="2"
           id="rect53" />
        <rect
           x="63.4"
           y="72.3"
           width="2"
           height="2"
           id="rect54" />
        <rect
           x="116.3"
           y="17.9"
           width="1.5"
           height="1.5"
           id="rect55" />
        <rect
           x="141.1"
           y="65.5"
           width="2.5"
           height="2.5"
           id="rect56" />
        <rect
           x="88.4"
           y="43.3"
           width="1.5"
           height="1.5"
           id="rect57" />
        <rect
           x="157.9"
           y="30.1"
           width="2"
           height="2"
           id="rect58" />
        <rect
           x="86.0"
           y="43.9"
           width="1.5"
           height="1.5"
           id="rect59" />
        <rect
           x="138.2"
           y="66.4"
           width="2.5"
           height="2.5"
           id="rect60" />
        <rect
           x="137.3"
           y="59.9"
           width="1"
           height="1"
           id="rect61" />
        <rect
           x="83.7"
           y="34.3"
           width="1.5"
           height="1.5"
           id="rect62" />
        <rect
           x="123.7"
           y="34.1"
           width="1.5"
           height="1.5"
           id="rect63" />
        <rect
           x="66.9"
           y="44.7"
           width="2"
           height="2"
           id="rect64" />
        <rect
           x="75.3"
           y="68.5"
           width="1"
           height="1"
           id="rect65" />
        <rect
           x="80.6"
           y="70.9"
           width="1.5"
           height="1.5"
           id="rect66" />
        <rect
           x="116.9"
           y="64.6"
           width="2.5"
           height="2.5"
           id="rect67" />
        <rect
           x="103.4"
           y="32.4"
           width="1"
           height="1"
           id="rect68" />
        <rect
           x="140.3"
           y="26.8"
           width="1"
           height="1"
           id="rect69" />
        <rect
           x="77.4"
           y="25.0"
           width="2.5"
           height="2.5"
           id="rect70" />
        <rect
           x="109.9"
           y="13.3"
           width="1"
           height="1"
           id="rect71" />
        <rect
           x="105.1"
           y="63.3"
           width="2.5"
           height="2.5"
           id="rect72" />
        <rect
           x="105.3"
           y="65.4"
           width="2"
           height="2"
           id="rect73" />
        <rect
           x="67.0"
           y="56.6"
           width="2.5"
           height="2.5"
           id="rect74" />
        <rect
           x="159.2"
           y="21.7"
           width="1.5"
           height="1.5"
           id="rect75" />
        <rect
           x="97.5"
           y="59.2"
           width="2.5"
           height="2.5"
           id="rect76" />
        <rect
           x="66.6"
           y="43.0"
           width="1"
           height="1"
           id="rect77" />
        <rect
           x="56.2"
           y="46.6"
           width="2"
           height="2"
           id="rect78" />
        <rect
           x="94.0"
           y="72.0"
           width="2"
           height="2"
           id="rect79" />
        <rect
           x="107.4"
           y="71.5"
           width="1.5"
           height="1.5"
           id="rect80" />
        <rect
           x="65.8"
           y="50.6"
           width="1.5"
           height="1.5"
           id="rect81" />
        <rect
           x="115.8"
           y="20.0"
           width="2.5"
           height="2.5"
           id="rect82" />
        <rect
           x="108.2"
           y="58.1"
           width="1.5"
           height="1.5"
           id="rect83" />
        <rect
           x="70.6"
           y="33.3"
           width="2.5"
           height="2.5"
           id="rect84" />
        <rect
           x="72.4"
           y="20.8"
           width="2.5"
           height="2.5"
           id="rect85" />
        <rect
           x="86.9"
           y="27.0"
           width="2"
           height="2"
           id="rect86" />
        <rect
           x="106.0"
           y="49.3"
           width="1"
           height="1"
           id="rect87" />
        <rect
           x="145.2"
           y="31.4"
           width="2"
           height="2"
           id="rect88" />
        <rect
           x="163.2"
           y="57.4"
           width="1"
           height="1"
           id="rect89" />
        <rect
           x="135.3"
           y="44.6"
           width="1.5"
           height="1.5"
           id="rect90" />
        <rect
           x="103.6"
           y="56.1"
           width="2"
           height="2"
           id="rect91" />
        <rect
           x="138.4"
           y="67.7"
           width="2"
           height="2"
           id="rect92" />
        <rect
           x="54.5"
           y="46.4"
           width="2"
           height="2"
           id="rect93" />
      </g>
    </mask>
  </defs>
  <g
     font-family="DejaVu Sans, sans-serif"
     font-size="76"
     font-weight="700"
     letter-spacing="-3"
     id="g94">
    <path
       d="M 10.042969,70 V 62.615234 L 28.931641,37.380859 H 11.564453 v -7.533203 h 28.871094 v 7.458985 L 21.658203,62.392578 H 42.253906 V 70 Z"
       id="text93"
       style="fill:#e8bd32"
       aria-label="z" />
    <path
       d="m 95.693359,43.466797 q 0,8.089844 -3.191406,14.138672 -3.154297,6.011718 -8.980469,9.203125 Q 77.732422,70 70.236328,70 H 49.083984 V 17.712891 h 18.925782 q 13.210937,0 20.447265,6.679687 7.236328,6.642578 7.236328,19.074219 z m -11.021484,0 q 0,-8.423828 -4.378906,-12.839844 -4.378907,-4.453125 -12.50586,-4.453125 H 60.03125 v 35.365234 h 9.277344 q 7.050781,0 11.207031,-4.861328 4.15625,-4.861328 4.15625,-13.210937 z M 101.19141,70 V 39.273437 q 0,-3.302734 -0.11133,-5.492187 -0.0742,-2.226563 -0.18555,-3.933594 h 9.94531 q 0.11133,0.667969 0.29688,4.082031 0.18555,3.376954 0.18555,4.490235 h 0.14843 q 1.52149,-4.230469 2.70899,-5.9375 1.1875,-1.744141 2.82031,-2.560547 1.63281,-0.853516 4.08203,-0.853516 2.00391,0 3.22852,0.556641 v 8.720703 q -2.52344,-0.556641 -4.45313,-0.556641 -3.89648,0 -6.08594,3.154297 -2.15234,3.154297 -2.15234,9.351563 V 70 Z m 35.85351,0.742187 q -5.82617,0 -9.09179,-3.154296 -3.26563,-3.191407 -3.26563,-8.94336 0,-6.234375 4.04492,-9.5 4.08203,-3.265625 11.80078,-3.339844 l 8.64649,-0.148437 v -2.041016 q 0,-3.933593 -1.37305,-5.826172 -1.37305,-1.929687 -4.49023,-1.929687 -2.89454,0 -4.26758,1.335937 -1.33594,1.298829 -1.66992,4.341797 l -10.87305,-0.519531 q 1.00195,-5.863281 5.34375,-8.869141 4.37891,-3.042968 11.91211,-3.042968 7.60742,0 11.72656,3.748047 4.11914,3.748046 4.11914,10.65039 V 58.125 q 0,3.376953 0.74219,4.675781 0.7793,1.261719 2.56055,1.261719 1.1875,0 2.30078,-0.222656 v 5.640625 q -0.92774,0.222656 -1.66992,0.408203 -0.74219,0.185547 -1.48438,0.296875 -0.74219,0.111328 -1.5957,0.185547 -0.81641,0.07422 -1.92969,0.07422 -3.93359,0 -5.82617,-1.929687 -1.85547,-1.929688 -2.22656,-5.677734 h -0.22266 q -4.37891,7.904296 -13.21094,7.904296 z m 12.13477,-19.333984 -5.34375,0.07422 q -3.63672,0.148437 -5.15821,0.816406 -1.52148,0.630859 -2.33789,1.966797 -0.77929,1.335937 -0.77929,3.5625 0,2.857422 1.29882,4.267578 1.33594,1.373047 3.5254,1.373047 2.44921,0 4.45312,-1.335938 2.04102,-1.335937 3.19141,-3.673828 1.15039,-2.375 1.15039,-5.009765 z M 210.45312,70 h -11.02148 l -6.38281,-24.492188 q -0.44531,-1.669921 -1.74414,-8.238281 L 189.375,45.582031 182.91797,70 H 171.89648 L 161.50586,29.847656 h 9.79687 l 6.60547,30.689453 0.51953,-2.746093 0.92774,-4.341797 6.30859,-23.601563 h 11.16992 l 6.16016,23.601563 q 0.51953,1.929687 1.52148,7.08789 l 1.03907,-4.898437 5.78906,-25.791016 h 9.64844 z"
       id="text94"
       mask="url(#grain)"
       style="fill:#20252c"
       aria-label="Draw" />
  </g>
</svg>
